PathFileType	4	(X/Y/Z)	SUBJ63_0_static_RCNL2025.trc
DataRate	CameraRate	NumFrames	NumMarkers	Units	OrigDataRate	OrigDataStartFrame	OrigNumFrames
100	100	9	25	mm	100	73	116
Frame#	Time	R_Shoulder			L_Shoulder			C7			J_Notch			R_Elbow			L_Elbow			R_Wrist			L_Wrist			R_Asis			L_Asis			Sacral			Thoracic			Sternum			R_Thigh_Lateral			R_Knee_Lateral			R_Shank_Lateral			R_Ankle_Lateral			R_Heel			R_Toe			L_Thigh_Lateral			L_Knee_Lateral			L_Shank_Lateral			L_Ankle_Lateral			L_Heel			L_Toe		
		X1	Y1	Z1	X2	Y2	Z2	X3	Y3	Z3	X4	Y4	Z4	X5	Y5	Z5	X6	Y6	Z6	X7	Y7	Z7	X8	Y8	Z8	X9	Y9	Z9	X10	Y10	Z10	X11	Y11	Z11	X12	Y12	Z12	X13	Y13	Z13	X14	Y14	Z14	X15	Y15	Z15	X16	Y16	Z16	X17	Y17	Z17	X18	Y18	Z18	X19	Y19	Z19	X20	Y20	Z20	X21	Y21	Z21	X22	Y22	Z22	X23	Y23	Z23	X24	Y24	Z24	X25	Y25	Z25
73	0.72000000	-335.765869	1297.808960	-43.678814	-330.657501	1301.000366	-384.543762	-419.160492	1362.508057	-218.555756	-296.706085	1261.718262	-216.709457	-361.435089	1002.962952	33.111732	-349.547821	1002.149292	-474.150024	-290.816269	787.157654	64.724895	-281.469040	789.431763	-499.148544	-256.339966	847.773682	-89.022720	-241.927750	843.906616	-341.290955	-474.961884	866.159729	-230.580215	-486.562500	1170.703979	-218.324524	-231.403885	1089.536743	-215.656097	-357.682709	508.717163	-43.092548	-367.772064	452.353485	-91.895111	-400.303436	272.351562	-46.971867	-411.137970	61.272591	-127.597748	-453.427246	58.564827	-178.986618	-294.056885	47.095192	-130.777496	-341.038940	473.936798	-424.998322	-348.669067	448.412018	-356.829437	-367.894073	258.408325	-396.629547	-389.095367	60.636646	-323.105865	-441.329956	53.277279	-275.837677	-269.603058	44.245354	-305.316528
74	0.73000000	-335.803009	1297.825439	-43.649738	-330.661438	1300.986572	-384.550507	-419.164215	1362.495728	-218.559052	-296.697906	1261.737427	-216.716705	-361.629089	1002.952820	33.145058	-349.609985	1002.221802	-474.187439	-290.842865	787.145111	64.754351	-281.451859	789.406067	-499.186798	-256.335022	847.773132	-88.997620	-241.902390	843.878784	-341.326324	-474.943451	866.186340	-230.613892	-486.645660	1170.596436	-218.354660	-231.428802	1089.631958	-215.593414	-357.690277	508.722382	-43.113461	-367.774963	452.366241	-91.894844	-400.186218	272.317719	-47.119690	-411.150085	61.264858	-127.586014	-453.443085	58.582413	-178.964905	-294.004852	47.049694	-130.799744	-340.911591	473.940979	-425.199249	-348.721649	448.345764	-356.725311	-367.872681	258.371735	-396.570740	-389.093781	60.662605	-323.096375	-441.305023	53.125320	-275.793640	-269.595642	44.224461	-305.284882
75	0.74000000	-335.878876	1297.845215	-43.581074	-330.699249	1301.032715	-384.539520	-419.222351	1362.467041	-218.520157	-296.841644	1261.715942	-216.700394	-361.727783	1002.929565	33.166138	-349.701385	1002.188477	-474.128021	-290.861328	787.140320	64.853891	-281.514618	789.426727	-499.184341	-256.281433	847.806763	-89.100967	-242.062363	843.852478	-341.231506	-474.970703	866.238220	-230.579239	-486.657104	1170.686157	-218.342987	-231.470322	1089.622559	-215.521881	-357.716003	508.798889	-43.110329	-367.774048	452.356964	-91.883644	-400.065735	272.317444	-47.183521	-411.075012	61.303196	-127.592575	-453.447449	58.586487	-178.961899	-294.031738	47.132736	-130.828171	-340.957275	473.954437	-425.011871	-348.666565	448.362335	-356.789459	-367.875977	258.398010	-396.552551	-389.077026	60.608448	-323.102173	-441.399048	53.085461	-275.675018	-269.589752	44.206879	-305.276764
76	0.75000000	-335.896149	1297.820679	-43.575050	-330.717560	1301.020386	-384.491302	-419.257355	1362.512207	-218.484238	-296.887451	1261.781860	-216.654602	-361.713196	1002.955505	33.197651	-349.623016	1002.205933	-474.018066	-290.828247	787.188263	64.901236	-281.530945	789.479492	-499.124237	-256.287750	847.793945	-89.063873	-242.162933	843.840576	-341.209320	-475.067413	866.218323	-230.506760	-486.732422	1170.662842	-218.300827	-231.481781	1089.614136	-215.513687	-357.719696	508.794403	-43.095680	-367.760925	452.358063	-91.913345	-399.856720	272.171631	-47.434643	-411.064514	61.300957	-127.618103	-453.432739	58.572823	-178.983353	-293.999115	47.130550	-130.793091	-340.857544	473.973877	-425.199188	-348.707336	448.318848	-356.731415	-367.835938	258.391754	-396.592651	-389.084747	60.643620	-323.086243	-441.389496	53.195831	-275.710815	-269.586395	44.191193	-305.259064
77	0.76000000	-335.941284	1297.816162	-43.633568	-330.783539	1301.056763	-384.493408	-419.332855	1362.523193	-218.436127	-296.894226	1261.785645	-216.626770	-361.710419	1002.990967	33.278111	-349.632660	1002.187866	-474.036530	-290.863174	787.198425	64.957186	-281.416351	789.526611	-499.136581	-256.286133	847.791931	-89.179420	-242.165573	843.842834	-341.235138	-475.042938	866.166077	-230.537003	-486.771790	1170.652710	-218.251190	-231.495697	1089.680786	-215.515640	-357.739746	508.837616	-43.036362	-367.742462	452.339386	-91.923981	-400.120514	272.292969	-47.125275	-411.161987	61.269806	-127.531265	-453.420532	58.560024	-178.970901	-293.934845	47.127956	-130.766068	-340.943085	473.971741	-424.996002	-348.714600	448.312408	-356.721405	-367.708862	258.501404	-396.634766	-389.090576	60.691311	-323.105438	-441.422150	53.113056	-275.661377	-269.583862	44.205990	-305.303650
78	0.77000000	-335.949158	1297.823486	-43.638084	-330.888092	1301.062988	-384.385956	-419.409363	1362.467651	-218.480942	-296.868744	1261.866333	-216.660614	-361.564026	1003.058655	33.332634	-349.630615	1002.214294	-474.055725	-290.859863	787.227417	65.020380	-281.401779	789.552582	-499.115097	-256.378571	847.783630	-89.070160	-242.129196	843.901001	-341.259399	-475.082031	866.148438	-230.481232	-486.844574	1170.662476	-218.204376	-231.469101	1089.772461	-215.518616	-357.798126	508.781738	-43.016888	-367.826385	452.307404	-91.871597	-400.222961	272.340118	-47.083828	-411.139313	61.243843	-127.567375	-453.429352	58.569782	-178.984009	-293.941406	47.155357	-130.762665	-340.973145	473.970215	-424.992767	-348.708649	448.383606	-356.769775	-367.786072	258.417877	-396.556488	-389.145813	60.661427	-323.078949	-441.453583	53.127357	-275.646912	-269.594635	44.183659	-305.334656
79	0.78000000	-336.065125	1297.906860	-43.553612	-330.923096	1301.061401	-384.409241	-419.501038	1362.480835	-218.415497	-296.990936	1261.854370	-216.675903	-361.458801	1003.088623	33.396088	-349.648102	1002.265137	-473.907379	-290.844513	787.260376	65.021854	-281.433014	789.603302	-499.096756	-256.485718	847.851440	-88.976570	-242.082825	843.987122	-341.250549	-475.100861	866.133850	-230.448029	-486.846069	1170.619995	-218.198364	-231.600906	1089.767456	-215.501678	-357.771912	508.733612	-43.071716	-367.797241	452.323151	-91.883881	-400.139526	272.143311	-47.160347	-411.189026	61.320465	-127.525528	-453.445282	58.584732	-178.964615	-294.045868	47.070496	-130.767731	-341.016022	473.961273	-424.908447	-348.665894	448.420868	-356.760651	-367.776764	258.452820	-396.657745	-389.113068	60.622295	-323.054169	-441.417419	53.102154	-275.681488	-269.591766	44.206318	-305.283081
80	0.79000000	-336.093201	1297.907227	-43.537354	-330.950623	1301.101807	-384.400757	-419.509430	1362.485107	-218.406387	-297.092865	1261.833496	-216.643600	-361.345978	1003.099792	33.492508	-349.661194	1002.292603	-473.956604	-290.814743	787.299408	65.080786	-281.455109	789.575195	-499.113968	-256.472595	847.866516	-89.026176	-242.183929	843.973511	-341.110413	-475.164551	866.145691	-230.518356	-486.963165	1170.661377	-218.180496	-231.582031	1089.833496	-215.527496	-357.776215	508.760101	-43.019527	-367.876282	452.319336	-91.822052	-400.131348	272.280121	-47.129860	-411.211090	61.261845	-127.491707	-453.447540	58.586514	-178.961975	-294.004608	47.134659	-130.798859	-341.023712	473.979767	-424.874817	-348.685150	448.429565	-356.689728	-367.833038	258.417480	-396.500061	-389.077728	60.623425	-323.096466	-441.521057	53.187599	-275.650299	-269.589539	44.207802	-305.275787
81	0.80000000	-336.116913	1297.914551	-43.529522	-330.997620	1301.137085	-384.400787	-419.638641	1362.497925	-218.433640	-297.084991	1261.869141	-216.669342	-361.337067	1003.130066	33.581997	-349.661987	1002.270569	-473.982971	-290.851318	787.324158	65.156557	-281.414261	789.596893	-499.119308	-256.477448	847.878601	-88.988724	-242.227142	843.952637	-341.056885	-475.168396	866.147400	-230.524185	-487.028381	1170.695068	-218.154724	-231.556900	1089.846069	-215.537521	-357.773163	508.750854	-43.035038	-367.867249	452.413452	-91.805290	-400.086609	272.308746	-47.008492	-411.165497	61.275364	-127.520042	-453.503632	58.595970	-179.056137	-293.952545	47.087029	-130.835190	-341.077515	473.986298	-424.857056	-348.681915	448.396210	-356.656952	-367.748108	258.502106	-396.583588	-389.080627	60.655899	-323.083618	-441.356934	53.126675	-275.740631	-269.572052	44.212044	-305.301971
